<?xml version="1.0" encoding="UTF-8" standalone="no"?>
<!-- Generator: Adobe Illustrator 22.0.0, SVG Export Plug-In . SVG Version: 6.00 Build 0)  -->

<svg
   version="1.1"
   id="图层_1"
   x="0px"
   y="0px"
   viewBox="0 0 119.40383 113.60626"
   xml:space="preserve"
   width="119.40383"
   height="113.60626"
   xmlns="http://www.w3.org/2000/svg"
   xmlns:svg="http://www.w3.org/2000/svg"><defs
   id="defs10" />
<style
   type="text/css"
   id="style1">
	.st0{fill:#E60012;}
</style>
<title
   id="title1">GoodWe: Smart Energy Innovator</title>
<g
   id="图层_2_1_"
   transform="translate(-527.4)">
	<g
   id="图层_1-2">
		
		
		
		
		
		
		<path
   class="st0"
   d="m 538.9,0 h -0.5 c -6.1,0 -11,4.9 -11,11 v 91.4 c 0,6.1 4.9,11 11,11 h 0.5 c 6.1,0 11,-4.9 11,-11 V 11 c 0,-6.1 -5,-11 -11,-11"
   id="path7" />
		<path
   class="st0"
   d="m 583,56.3 c -4.5,-4.3 -11.6,-4.1 -15.9,0.4 l -36.5,37.9 c -4.3,4.5 -4.1,11.6 0.4,15.9 2.2,2.1 5.1,3.2 8.1,3.1 0.4,0 0.9,0 1.3,-0.1 2.5,-0.3 4.8,-1.5 6.6,-3.4 l 36.5,-37.9 c 4.2,-4.5 4,-11.6 -0.5,-15.9"
   id="path8" />
		<path
   class="st0"
   d="m 635.4,0 h 0.4 c 6.1,0 11,4.9 11,11 v 91.4 c 0,6.1 -4.9,11 -11,11 h -0.4 c -6.1,0 -11,-4.9 -11,-11 V 11 c 0,-6.1 5,-11 11,-11"
   id="path9" />
		<path
   class="st0"
   d="m 591.3,56.3 c 4.5,-4.3 11.6,-4.1 15.9,0.4 l 36.5,37.9 c 4.3,4.5 4.1,11.6 -0.4,15.9 -2.2,2.1 -5.1,3.2 -8.1,3.1 -0.4,0 -0.9,0 -1.3,-0.1 -2.5,-0.3 -4.8,-1.5 -6.6,-3.4 L 590.8,72.2 c -4.2,-4.5 -4,-11.6 0.5,-15.9"
   id="path10" />
	</g>
</g>
</svg>
